<svg width="295" height="295" viewBox="0 0 295 295" fill="none" xmlns="http://www.w3.org/2000/svg">
<path d="M20.1237 234.072L51.5621 233.882L82.9373 233.819L145.688 233.755L208.438 233.819L239.813 233.882L271.251 234.072L239.813 234.198L208.438 234.261L145.688 234.388L82.9373 234.261L51.5621 234.198L20.1237 234.072Z" fill="#263238"/>
<path d="M52.8905 261.778C68.367 261.778 80.9131 259.37 80.9131 256.401C80.9131 253.431 68.367 251.024 52.8905 251.024C37.4141 251.024 24.868 253.431 24.868 256.401C24.868 259.37 37.4141 261.778 52.8905 261.778Z" fill="#EBEBEB"/>
<path d="M157.074 266.775C217.512 266.775 266.507 261.96 266.507 256.021C266.507 250.082 217.512 245.268 157.074 245.268C96.6353 245.268 47.6403 250.082 47.6403 256.021C47.6403 261.96 96.6353 266.775 157.074 266.775Z" fill="#EBEBEB"/>
<path d="M187.184 162.402L185.349 173.408L172.888 240.903H170.864L179.909 173.408L181.301 162.402H187.184Z" fill="#C7C7C7"/>
<path d="M181.301 162.402H187.184L185.349 173.408H179.909L181.301 162.402Z" fill="#A6A6A6"/>
<path d="M226.403 240.903H224.442L211.917 173.408L210.083 162.402H216.029L217.357 173.408L226.403 240.903Z" fill="#C7C7C7"/>
<path d="M216.029 162.402L217.357 173.408H211.917L210.083 162.402H216.029Z" fill="#A6A6A6"/>
<path d="M263.914 240.903H261.889L249.365 173.408L247.53 162.402H253.476L254.805 173.408L263.914 240.903Z" fill="#C7C7C7"/>
<path d="M254.805 173.408H249.365L247.53 162.402H253.476L254.805 173.408Z" fill="#A6A6A6"/>
<path d="M260.688 167.589H169.156V157.911H203.441L221.279 57.9658H269.86L260.688 167.589Z" fill="#C7C7C7"/>
<path d="M260.308 157.911H169.156V167.589H260.624L260.308 157.911Z" fill="#DBDBDB"/>
<path d="M260.688 167.589H255.69L265.116 57.9658H269.86L260.688 167.589Z" fill="#DBDBDB"/>
<path d="M233.551 49.4265C229.565 47.9083 227.541 47.9716 223.493 48.7939C223.43 48.7939 223.366 48.6674 223.43 48.6674C227.352 47.4656 229.882 47.086 233.614 49.2367C233.804 49.3632 233.74 49.4898 233.551 49.4265Z" fill="#263238"/>
<path d="M234.31 44.9346C230.072 43.7328 227.858 43.7328 223.493 44.3021C223.43 44.3021 223.43 44.1756 223.493 44.1756C227.731 43.29 230.198 42.9104 234.31 44.7449C234.499 44.7449 234.499 44.9346 234.31 44.9346Z" fill="#263238"/>
<path d="M234.12 44.9354C234.12 44.9354 237.662 44.9986 237.599 42.9111C237.599 40.8237 234.373 40.0646 234.373 40.0646C234.373 40.0646 236.65 40.0646 236.46 37.9772C236.271 35.953 228.553 35.3204 225.833 35.3836C221.089 35.5102 215.017 37.1548 212.17 38.1669C212.107 38.1669 212.043 38.1669 211.917 38.2302C200.974 41.646 192.434 48.0349 190.41 54.1708C188.322 60.4964 211.095 73.5905 225.58 77.4491C231.779 79.0938 236.144 75.1086 228.427 69.3523C222.671 65.0509 212.423 58.2192 213.245 57.8396C214.384 57.3336 215.586 57.0806 216.788 57.0806C217.104 57.1438 217.42 57.1438 217.673 57.2071C220.077 57.3968 229.186 54.8033 228.743 52.7791C228.68 52.5261 228.553 52.3363 228.427 52.1466C231.337 52.5261 234.942 53.475 235.701 51.8935C236.524 50.2489 233.487 49.4265 233.487 49.4265C233.487 49.4265 237.03 50.1224 237.156 48.0349C237.346 45.8842 234.12 44.9354 234.12 44.9354Z" fill="white" stroke="#263238" stroke-miterlimit="10"/>
<path d="M234.057 40.0008C229.819 39.1153 227.478 39.052 223.303 40.1274C223.24 40.1274 223.24 40.1274 223.177 40.0641C223.177 40.0008 223.177 40.0008 223.24 39.9376C227.352 38.4194 230.325 38.546 234.057 39.8743C234.31 39.9376 234.31 40.0641 234.057 40.0008Z" fill="#263238"/>
<path d="M228.427 52.0832C226.213 50.1223 222.671 51.0711 220.014 51.4507C219.887 51.4507 219.761 51.3874 219.697 51.2609V51.1976C219.002 48.7306 217.23 45.4413 214.637 44.5557C214.574 44.5557 214.574 44.4292 214.637 44.4292C217.547 44.9985 219.508 48.0348 220.14 50.8181C222.924 50.3753 226.466 49.553 228.427 52.0832Z" fill="#263238"/>
<path d="M204.706 73.0211L220.773 62.9634C220.773 62.9634 230.388 68.8462 232.792 72.0723C235.195 75.2984 233.298 78.8407 225.833 78.8407C217.231 78.8407 204.706 73.0211 204.706 73.0211Z" fill="white" stroke="#263238" stroke-miterlimit="10"/>
<g opacity="0.1">
<path opacity="0.1" d="M224.821 65.6197H216.535L217.99 64.6709H223.43L224.821 65.6197Z" fill="black"/>
<path opacity="0.1" d="M229.059 68.6564H211.664L213.119 67.7075H227.858L229.059 68.6564Z" fill="black"/>
<path opacity="0.1" d="M232.412 71.6925H206.793L208.248 70.7437H231.526C231.906 71.0599 232.222 71.3762 232.412 71.6925Z" fill="black"/>
<path opacity="0.1" d="M233.74 74.7291H208.754C207.869 74.4128 207.109 74.0966 206.477 73.7803H233.614C233.677 74.0966 233.74 74.4128 233.74 74.7291Z" fill="black"/>
<path opacity="0.1" d="M232.792 76.8164C232.412 77.1959 231.969 77.5122 231.526 77.702H218.116C216.977 77.449 215.902 77.1327 214.827 76.8164H232.792Z" fill="black"/>
</g>
<path d="M208.944 74.2224C215.396 70.3005 221.785 65.8093 222.86 64.9869C222.924 64.9237 222.86 64.8604 222.797 64.9237C217.99 67.7069 213.309 70.8065 208.881 74.1591V74.2224C208.881 74.2856 208.944 74.2856 208.944 74.2224Z" fill="#263238"/>
<path d="M225.77 78.8402C222.607 78.7137 219.508 78.2076 216.471 77.322C220.646 74.5388 225.644 71.1862 229.312 68.8457C230.578 69.7945 231.716 70.8699 232.728 72.0718C235.132 75.2978 233.298 78.8402 225.77 78.8402Z" fill="#263238"/>
<path d="M172.698 253.744C174.469 253.934 222.924 242.358 224.442 240.777C224.631 240.587 223.683 236.222 222.291 230.213V230.087C221.405 226.291 207.299 195.485 207.299 195.485L175.861 204.215L190.157 232.807C190.157 232.807 184.274 237.108 179.213 241.156C176.051 243.623 173.394 245.901 172.825 246.596C171.306 248.494 170.927 253.555 172.698 253.744Z" fill="#EB9481"/>
<path d="M172.698 253.744C174.469 253.934 222.924 242.358 224.442 240.777C224.631 240.587 223.683 236.222 222.291 230.213V230.086C221.975 228.695 219.824 223.508 217.23 217.562C212.043 218.953 193.509 223.95 186.804 226.038L190.22 232.806C190.22 232.806 184.274 237.108 179.213 241.156C176.051 243.623 173.394 245.9 172.825 246.596C171.306 248.494 170.927 253.554 172.698 253.744Z" fill="#EBEBEB"/>
<path d="M172.572 253.934C174.406 254.06 222.924 242.421 224.442 240.776C225.011 240.144 223.936 232.49 221.279 224.393L190.03 231.984C190.03 231.984 174.09 244.635 172.572 246.596C171.053 248.557 170.737 253.807 172.572 253.934Z" fill="white" stroke="#263238" stroke-miterlimit="10"/>
<path d="M172.761 251.847C180.858 249.696 213.625 241.726 221.785 240.208C221.848 240.208 221.848 240.208 221.785 240.271C213.815 242.548 180.985 250.265 172.761 251.973C172.635 252.036 172.635 251.91 172.761 251.847Z" fill="#263238"/>
<path d="M175.292 244.129C177.126 243.623 179.024 243.939 180.668 244.951C182.06 245.837 183.135 247.229 183.515 248.873C183.515 248.936 183.452 248.936 183.452 248.873C182.06 245.71 178.771 243.813 175.355 244.255C175.292 244.192 175.228 244.129 175.292 244.129Z" fill="#263238"/>
<path d="M187.69 233.439C190.916 232.617 194.964 232.87 197.621 235.02C197.748 235.084 197.621 235.273 197.495 235.21C194.268 234.388 190.979 233.945 187.69 233.818C187.563 233.818 187.5 233.692 187.5 233.565C187.563 233.565 187.627 233.502 187.69 233.439Z" fill="#263238"/>
<path d="M185.413 235.02C188.639 234.198 192.687 234.451 195.344 236.601C195.47 236.665 195.344 236.854 195.217 236.791C191.991 235.969 188.702 235.526 185.413 235.4C185.286 235.4 185.16 235.336 185.16 235.21C185.223 235.146 185.349 235.02 185.413 235.02Z" fill="#263238"/>
<path d="M183.135 236.602C186.361 235.779 190.41 236.032 193.067 238.183C193.193 238.246 193.067 238.436 192.94 238.373C189.714 237.55 186.425 237.108 183.135 236.981C183.009 236.981 182.946 236.855 182.946 236.728C183.009 236.728 183.072 236.665 183.135 236.602Z" fill="#263238"/>
<path d="M180.858 238.183C184.084 237.361 188.133 237.614 190.789 239.764C190.916 239.828 190.789 240.017 190.663 239.954C187.437 239.132 184.147 238.689 180.858 238.563C180.732 238.563 180.668 238.499 180.605 238.373C180.668 238.31 180.795 238.246 180.858 238.183Z" fill="#263238"/>
<path d="M217.863 232.996C221.532 232.11 222.86 237.804 219.191 238.689C215.523 239.575 214.257 233.882 217.863 232.996Z" fill="#263238"/>
<path d="M183.515 230.339C185.792 232.173 188.828 232.932 191.548 234.008C191.738 234.071 191.991 233.944 192.054 233.755C192.054 233.691 192.054 233.691 192.054 233.628C192.118 233.628 192.118 233.565 192.118 233.565C191.169 230.655 189.461 227.998 187.184 225.974C185.855 224.772 183.452 223.95 182.123 225.721C180.858 227.303 182.186 229.263 183.515 230.339ZM182.693 227.682C182.186 224.076 185.982 226.037 186.994 226.923C187.627 227.492 188.196 228.125 188.702 228.821C189.777 230.212 190.789 231.667 191.675 233.185C190.41 232.616 189.018 232.11 187.753 231.541C186.172 230.908 183.009 229.643 182.693 227.682Z" fill="#263238"/>
<path d="M203.188 228.631C202.429 226.544 199.898 226.67 198.254 227.429C195.47 228.758 193.067 230.782 191.359 233.312C191.359 233.375 191.359 233.439 191.359 233.439C191.295 233.629 191.422 233.882 191.612 233.945C191.675 233.945 191.675 233.945 191.738 233.945C194.648 233.692 197.748 233.818 200.468 232.68C202.112 232.047 203.947 230.592 203.188 228.631ZM196.103 232.743C194.711 232.869 193.256 232.996 191.865 233.186C193.193 231.984 194.521 230.908 195.976 229.833C196.672 229.327 197.431 228.884 198.19 228.505C199.392 227.935 203.63 227.113 202.049 230.466C201.163 232.237 197.748 232.553 196.103 232.743Z" fill="#263238"/>
<path d="M187.374 229.074L220.71 220.155C220.71 220.155 191.422 159.366 193.762 156.013C194.964 154.369 226.213 152.914 235.891 144.184C248.479 132.861 239.307 116.352 239.307 116.352H204.326C204.326 116.352 204.959 123.626 203.63 124.765C202.745 125.524 161.249 130.268 157.074 144.437C152.076 161.896 187.374 229.074 187.374 229.074Z" fill="#263238"/>
<path d="M186.804 224.204C187.69 223.824 188.575 223.445 189.524 223.192C190.473 222.875 191.485 222.496 192.434 222.179C194.332 221.547 196.293 220.978 198.19 220.408C202.112 219.27 205.971 218.194 209.956 217.182C211.98 216.676 216.408 215.474 216.661 215.538C216.788 215.538 216.788 215.791 216.724 215.854C212.929 217.245 209.07 218.384 205.212 219.649C201.353 220.914 197.495 222.053 193.573 223.002C192.497 223.255 191.422 223.508 190.347 223.824C189.208 224.14 188.069 224.393 186.867 224.583C186.804 224.457 186.678 224.267 186.804 224.204Z" fill="#455A64"/>
<path d="M187.753 153.293C188.449 152.66 189.524 152.597 190.347 152.407L205.402 149.434C210.083 148.485 214.827 147.663 219.508 146.588C223.366 145.702 227.288 144.627 230.578 142.413C233.804 140.262 236.144 136.973 237.156 133.241C238.232 129.508 238.168 125.523 237.726 121.665C237.599 120.716 237.409 119.83 237.22 118.881C237.22 118.818 237.346 118.818 237.346 118.881C238.864 126.029 239.18 134.316 233.993 140.199C231.463 143.045 227.921 144.817 224.252 145.955C220.14 147.284 215.839 147.979 211.601 148.802L196.546 151.775C194.142 152.281 191.675 152.66 189.271 153.23C188.765 153.293 188.322 153.546 188.006 153.862C187.69 154.368 187.627 155.064 187.88 155.633C188.133 156.835 188.512 157.974 188.892 159.112C191.928 168.411 213.182 212.564 213.751 213.576C213.815 213.703 213.625 213.766 213.562 213.639C208.691 205.543 192.814 171.447 189.524 162.655C188.639 160.378 187.943 158.1 187.374 155.76C187.12 154.938 186.994 153.989 187.753 153.293Z" fill="#455A64"/>
<path d="M87.3653 254.946C89.0099 255.579 138.793 258.172 140.69 257.097C140.943 256.97 141.26 252.479 141.576 246.343L141.829 240.524C141.892 238.563 167.511 210.034 167.511 210.034L131.834 207.883L110.011 239.828C110.011 239.828 103.116 242.295 97.1067 244.762C93.3746 246.28 90.1485 247.672 89.3895 248.178C87.4918 249.506 85.7206 254.313 87.3653 254.946Z" fill="#EB9481"/>
<path d="M148.344 231.921C144.612 236.349 141.829 239.828 141.829 240.461L141.576 246.28C141.26 252.416 140.88 256.907 140.69 257.034C138.793 258.109 89.0099 255.579 87.3652 254.883C85.7206 254.187 87.4918 249.443 89.4527 248.051C90.2118 247.545 93.4379 246.154 97.1067 244.635C103.116 242.168 110.011 239.765 110.011 239.765L116.337 230.529L148.344 231.921Z" fill="#EBEBEB"/>
<path d="M87.1122 255.136C88.8201 255.832 138.666 258.235 140.627 257.097C141.386 256.654 142.525 249.063 142.208 240.524L110.074 239.005C110.074 239.005 91.2239 246.659 89.1997 248.114C87.1755 249.569 85.4043 254.44 87.1122 255.136Z" fill="white" stroke="#263238" stroke-miterlimit="10"/>
<path d="M87.9346 253.175C96.2844 253.365 130 254.946 138.223 255.832C138.287 255.832 138.287 255.895 138.223 255.895C129.937 255.895 96.2211 253.997 87.8713 253.365C87.7448 253.301 87.7448 253.175 87.9346 253.175Z" fill="#263238"/>
<path d="M92.489 246.47C94.3867 246.533 96.1579 247.355 97.423 248.747C98.5616 250.012 99.1309 251.594 99.0677 253.301C99.0677 253.365 99.0044 253.365 98.9411 253.301C98.4983 249.886 95.9048 247.166 92.489 246.596C92.489 246.533 92.4257 246.533 92.489 246.47C92.4257 246.47 92.489 246.47 92.489 246.47Z" fill="#263238"/>
<path d="M107.481 239.701C110.833 239.828 114.629 241.219 116.59 244.003C116.653 244.129 116.526 244.192 116.4 244.129C113.553 242.484 110.517 241.093 107.417 240.081C107.291 240.017 107.291 239.891 107.291 239.828C107.291 239.764 107.354 239.701 107.481 239.701Z" fill="#263238"/>
<path d="M104.824 240.587C108.177 240.713 111.972 242.105 113.933 244.888C113.996 245.015 113.87 245.078 113.743 245.015C110.897 243.37 107.86 241.979 104.761 240.966C104.634 240.966 104.571 240.84 104.571 240.713C104.571 240.65 104.697 240.587 104.824 240.587Z" fill="#263238"/>
<path d="M102.167 241.472C105.52 241.599 109.315 242.927 111.276 245.774C111.339 245.9 111.213 245.963 111.086 245.963C108.24 244.255 105.204 242.927 102.104 241.915C101.977 241.852 101.914 241.725 101.977 241.662C102.041 241.535 102.104 241.472 102.167 241.472Z" fill="#263238"/>
<path d="M99.5737 242.358C102.926 242.484 106.722 243.813 108.683 246.659C108.746 246.786 108.619 246.849 108.493 246.786C105.646 245.141 102.673 243.75 99.5105 242.737C99.3839 242.674 99.3207 242.611 99.3839 242.484C99.3839 242.421 99.4472 242.358 99.5737 242.358Z" fill="#263238"/>
<path d="M136.515 247.798C140.248 247.988 139.995 253.808 136.199 253.618C132.404 253.428 132.783 247.545 136.515 247.798Z" fill="#263238"/>
<path d="M104.318 235.527C106.026 237.93 108.683 239.512 111.023 241.283C111.213 241.409 111.466 241.346 111.592 241.156C111.592 241.093 111.656 241.093 111.656 241.03C111.719 241.03 111.782 241.03 111.782 240.967C111.656 237.867 110.77 234.894 109.125 232.3C108.177 230.782 106.089 229.327 104.318 230.656C102.547 231.984 103.306 234.135 104.318 235.527ZM104.318 232.743C104.824 229.138 107.987 232.047 108.619 233.249C109.062 234.008 109.442 234.767 109.758 235.527C110.391 237.171 110.96 238.879 111.403 240.587C110.327 239.638 109.189 238.816 108.05 237.93C106.722 236.855 104.002 234.767 104.318 232.743Z" fill="#263238"/>
<path d="M123.674 239.385C123.548 237.171 121.081 236.601 119.246 236.855C116.21 237.361 113.364 238.626 110.96 240.587C110.897 240.587 110.897 240.65 110.96 240.713C110.833 240.903 110.833 241.156 111.023 241.282C111.086 241.282 111.086 241.346 111.15 241.346C113.996 241.915 116.969 242.927 119.879 242.611C121.65 242.421 123.801 241.472 123.674 239.385ZM115.704 241.346C114.312 241.093 112.921 240.776 111.529 240.587C113.111 239.828 114.755 239.132 116.4 238.499C117.222 238.246 118.045 237.993 118.867 237.803C120.195 237.55 124.497 237.993 122.093 240.776C120.701 242.295 117.349 241.662 115.704 241.346Z" fill="#263238"/>
<path d="M108.43 233.06L148.344 237.994C148.344 237.994 187.816 190.804 190.979 187.642C200.847 177.9 236.271 161.074 246.834 145.45C256.323 131.407 246.708 116.415 246.708 116.415H207.742C208.754 120.59 210.083 124.638 211.727 128.56C211.727 128.56 179.403 152.914 162.134 170.309C151.064 181.506 108.43 233.06 108.43 233.06Z" fill="#263238"/>
<path d="M204.832 126.03C205.971 126.22 207.109 126.599 208.185 126.979C209.323 127.358 210.399 127.801 211.537 128.307C213.688 129.319 215.776 130.394 217.8 131.596C217.863 131.66 217.8 131.723 217.737 131.66C215.586 130.647 213.372 129.699 211.158 128.813L207.995 127.548C206.92 127.168 205.844 126.726 204.769 126.22C204.642 126.283 204.706 126.03 204.832 126.03Z" fill="#455A64"/>
<path d="M206.92 116.414C207.426 118.186 207.869 119.957 208.438 121.728C208.691 122.55 208.944 123.373 209.26 124.132C209.513 124.764 209.956 125.523 210.715 125.65C211.601 125.776 211.854 125.017 211.727 124.321C211.601 123.499 211.411 122.677 211.221 121.918C211.031 121.032 209.956 116.541 209.956 116.541C209.956 116.541 209.956 116.478 210.019 116.414H210.083C210.272 116.478 211.348 119.957 211.601 120.779C211.854 121.601 212.107 122.487 212.296 123.309C212.55 123.942 212.613 124.638 212.55 125.27C212.423 125.903 211.854 126.409 211.158 126.472C211.158 126.535 211.221 126.599 211.284 126.662C211.348 126.852 211.411 127.042 211.474 127.168C211.537 127.295 211.601 127.548 211.664 127.737C211.664 127.801 211.727 127.927 211.727 127.99C211.727 128.117 211.727 128.18 211.727 128.307C211.727 128.37 211.727 128.496 211.664 128.496C211.601 128.496 211.474 128.496 211.474 128.433C211.411 128.37 211.348 128.307 211.284 128.18C211.221 128.117 211.158 127.99 211.158 127.864C211.095 127.674 211.031 127.484 210.968 127.358C210.905 127.168 210.842 126.978 210.842 126.788C210.842 126.662 210.778 126.599 210.778 126.472C210.399 126.472 210.019 126.346 209.766 126.093C209.26 125.65 208.881 125.144 208.628 124.511C208.311 123.752 208.122 122.993 207.869 122.234C207.299 120.4 206.856 118.502 206.603 116.541C206.603 116.478 206.667 116.351 206.73 116.351C206.793 116.225 206.856 116.288 206.92 116.414Z" fill="#455A64"/>
<path d="M230.135 120.02C230.325 120.906 230.451 121.791 230.704 122.677C230.957 123.562 231.21 124.385 231.463 125.207C231.716 126.029 232.096 126.788 232.602 127.484C233.108 128.117 233.677 128.686 234.373 129.192C235.638 130.141 237.093 130.9 238.611 131.406C239.37 131.659 240.129 131.849 240.952 132.039C241.331 132.102 241.774 132.165 242.217 132.228C242.533 132.228 242.913 132.292 243.229 132.418C243.355 132.482 243.355 132.608 243.292 132.671L243.229 132.735C242.66 132.924 242.027 132.988 241.394 132.861C239.37 132.735 237.409 132.102 235.638 131.09C234.436 130.457 233.361 129.635 232.475 128.623C231.59 127.548 231.02 126.346 230.704 125.017C230.261 123.436 230.008 121.728 230.008 120.083C230.072 120.02 230.135 120.02 230.135 120.02Z" fill="#455A64"/>
<path d="M117.222 227.24C118.298 227.24 119.373 227.24 120.448 227.366C121.587 227.43 122.726 227.493 123.864 227.619C126.078 227.809 128.292 227.999 130.506 228.252C134.934 228.758 139.425 229.264 143.853 229.897C146.194 230.213 151.128 230.909 151.381 231.035C151.444 231.098 151.444 231.162 151.444 231.225C151.444 231.288 151.381 231.288 151.317 231.288C146.889 231.035 142.462 230.656 138.034 230.213C133.606 229.77 129.178 229.327 124.75 228.758C123.548 228.568 122.346 228.378 121.081 228.189C119.816 228.062 118.487 227.809 117.222 227.556C117.096 227.493 117.096 227.24 117.222 227.24Z" fill="#455A64"/>
<path d="M203.124 178.533C201.037 179.861 199.076 181.316 197.052 182.708C195.154 183.973 193.32 185.301 191.548 186.756C190.663 187.578 189.84 188.464 189.081 189.35L186.678 192.133C185.096 193.967 183.515 195.802 181.933 197.636C181.048 198.648 180.162 199.724 179.277 200.799C178.391 201.874 177.506 203.013 176.62 204.152C176.62 204.152 176.62 204.215 176.62 204.278H176.683C178.328 202.444 180.036 200.672 181.617 198.838C183.199 197.004 184.843 195.169 186.425 193.335C188.006 191.5 189.461 189.666 191.106 187.958C192.814 186.377 194.585 184.922 196.546 183.656C198.76 182.075 200.974 180.494 203.124 178.849C203.504 178.722 203.314 178.406 203.124 178.533Z" fill="#455A64"/>
<path d="M211.158 128.813C204.516 133.494 197.621 138.681 191.359 143.868C185.096 149.055 178.897 154.305 172.888 159.745C171.18 161.263 169.535 162.781 167.827 164.363C166.119 165.944 164.475 167.905 162.83 169.486C162.767 169.55 162.893 169.676 162.957 169.613C165.993 166.893 169.156 163.92 172.192 161.263C175.228 158.606 178.328 155.95 181.427 153.293C187.627 147.979 193.889 142.792 200.215 137.668C203.757 134.822 207.805 131.912 211.284 129.002C211.411 128.939 211.221 128.749 211.158 128.813Z" fill="#455A64"/>
<path d="M245.569 120.969C245.19 119.831 244.81 118.755 244.367 117.617C244.367 117.553 244.241 117.617 244.241 117.68C245.822 122.298 247.404 127.042 247.594 131.976C247.72 134.316 247.341 136.72 246.581 138.934C245.759 141.085 244.557 143.046 243.039 144.69C239.94 148.169 236.018 150.953 232.286 153.736C228.237 156.772 224.125 159.745 219.951 162.592C215.776 165.438 211.537 168.158 207.236 170.815C202.935 173.472 198.57 175.812 194.268 178.406C192.181 179.608 190.22 181.063 188.449 182.707C186.678 184.415 185.033 186.25 183.452 188.084C179.973 192.069 176.557 196.054 173.141 200.04C166.309 208.073 159.604 216.17 153.089 224.456C152.266 225.469 151.507 226.481 150.685 227.493C150.622 227.556 150.685 227.619 150.748 227.556C157.517 219.269 164.348 211.109 171.243 202.949C174.659 198.901 178.138 194.853 181.554 190.867C184.843 187.009 188.069 182.96 192.308 180.114C194.332 178.722 196.546 177.52 198.696 176.318C200.974 175.053 203.188 173.725 205.402 172.397C209.83 169.74 214.131 167.02 218.369 164.173C222.607 161.327 226.782 158.417 230.894 155.381C232.918 153.862 234.942 152.344 236.966 150.763C238.738 149.434 240.382 148.043 241.964 146.525C243.545 145.07 244.874 143.362 245.949 141.464C247.024 139.503 247.72 137.289 247.91 135.075C248.353 130.331 247.087 125.46 245.569 120.969Z" fill="#455A64"/>
<path d="M201.48 123.246C202.175 124.575 250.82 135.834 251.136 135.581C251.958 134.949 254.805 90.4162 241.964 70.4905C239.687 66.9481 234.246 66.3156 231.4 67.0746C230.008 67.4542 224.189 72.3882 221.532 77.3222C218.875 82.2561 201.037 122.361 201.48 123.246Z" fill="white" stroke="#263238" stroke-miterlimit="10"/>
<g opacity="0.1">
<path opacity="0.1" d="M240.193 68.6559H228.996C229.439 68.2763 229.882 67.9601 230.198 67.707H238.485C239.117 67.9601 239.686 68.2763 240.193 68.6559Z" fill="black"/>
<path opacity="0.1" d="M242.723 71.692H225.77C226.086 71.3757 226.403 71.0594 226.656 70.7432H242.153C242.343 71.0594 242.533 71.3757 242.723 71.692Z" fill="black"/>
<path opacity="0.1" d="M244.304 74.7286H223.177C223.43 74.4123 223.619 74.0961 223.872 73.7798H243.798C243.988 74.0961 244.178 74.4123 244.304 74.7286Z" fill="black"/>
<path opacity="0.1" d="M245.633 77.7648H221.279L221.532 77.322C221.595 77.1955 221.722 77.0057 221.785 76.8159H245.253C245.38 77.1322 245.506 77.4485 245.633 77.7648Z" fill="black"/>
<path opacity="0.1" d="M246.708 80.8009H219.824C219.951 80.4846 220.14 80.1683 220.267 79.8521H246.392C246.518 80.1683 246.645 80.4846 246.708 80.8009Z" fill="black"/>
<path opacity="0.1" d="M247.657 83.8375H218.432L218.875 82.8887H247.404C247.467 83.205 247.594 83.5212 247.657 83.8375Z" fill="black"/>
<path opacity="0.1" d="M248.479 86.8736H217.104C217.23 86.5574 217.357 86.2411 217.547 85.9248H248.289L248.479 86.8736Z" fill="black"/>
<path opacity="0.1" d="M249.112 89.9103H215.649C215.776 89.594 215.965 89.2777 216.092 88.9614H248.922C248.985 89.2777 249.112 89.594 249.112 89.9103Z" fill="black"/>
<path opacity="0.1" d="M249.744 92.9459H214.321C214.447 92.6296 214.574 92.3134 214.7 91.9971H249.554C249.618 92.3134 249.681 92.6296 249.744 92.9459Z" fill="black"/>
<path opacity="0.1" d="M250.25 95.9195H212.992C213.119 95.6033 213.245 95.287 213.372 94.9707H250.061L250.25 95.9195Z" fill="black"/>
<path opacity="0.1" d="M250.693 98.9557H211.601C211.727 98.6394 211.854 98.3231 211.98 98.0068H250.503C250.567 98.3864 250.63 98.7027 250.693 98.9557Z" fill="black"/>
<path opacity="0.1" d="M251.009 101.992H210.272C210.399 101.676 210.525 101.359 210.652 101.043H250.883C250.946 101.423 251.009 101.739 251.009 101.992Z" fill="black"/>
<path opacity="0.1" d="M251.326 105.028H208.944C209.07 104.712 209.197 104.395 209.323 104.079H251.199C251.262 104.459 251.326 104.775 251.326 105.028Z" fill="black"/>
<path opacity="0.1" d="M251.579 108.064H207.616C207.742 107.748 207.869 107.432 207.995 107.115H251.452C251.515 107.495 251.579 107.748 251.579 108.064Z" fill="black"/>
<path opacity="0.1" d="M251.768 111.101H206.35L206.73 110.152H251.705C251.705 110.531 251.705 110.848 251.768 111.101Z" fill="black"/>
<path opacity="0.1" d="M251.895 114.137H205.022L205.402 113.188H251.832C251.895 113.568 251.895 113.884 251.895 114.137Z" fill="black"/>
<path opacity="0.1" d="M251.958 117.173H203.757L204.136 116.225H251.958V117.173Z" fill="black"/>
<path opacity="0.1" d="M252.021 120.21H202.492C202.618 119.893 202.745 119.64 202.871 119.261H252.021C252.021 119.64 252.021 119.893 252.021 120.21Z" fill="black"/>
<path opacity="0.1" d="M252.021 122.36C252.021 122.677 252.021 122.993 252.021 123.309H201.48C201.48 122.993 201.606 122.677 201.733 122.424L252.021 122.36Z" fill="black"/>
<path opacity="0.1" d="M251.958 125.397C251.958 125.713 251.958 126.03 251.958 126.346H211.474C210.209 126.03 209.07 125.713 207.995 125.397H251.958Z" fill="black"/>
<path opacity="0.1" d="M251.895 128.433C251.895 128.749 251.895 129.066 251.832 129.382H223.683C222.418 129.066 221.152 128.749 219.887 128.433H251.895Z" fill="black"/>
<path opacity="0.1" d="M251.705 131.406C251.705 131.723 251.642 132.039 251.642 132.355H236.46L232.539 131.406H251.705Z" fill="black"/>
<path opacity="0.1" d="M251.452 134.442C251.452 134.759 251.389 135.075 251.262 135.391H249.997C249.048 135.201 247.594 134.885 245.696 134.442H251.452Z" fill="black"/>
</g>
<path d="M261.004 43.1639C258.853 41.2662 253.982 37.7239 249.618 35.6997C247.214 34.5611 239.876 31.9675 238.864 33.7387C237.852 35.5099 239.94 36.4587 239.94 36.4587C239.94 36.4587 236.713 35.8262 235.828 37.7239C234.942 39.6216 238.232 41.0132 238.232 41.0132C238.232 41.0132 234.879 40.6337 234.12 42.5946C233.361 44.5556 236.903 45.3779 236.903 45.3779C236.903 45.3779 233.804 44.8718 233.93 46.7063C233.993 48.4774 237.599 49.0468 240.446 49.8691C240.256 49.9956 240.066 50.1221 239.94 50.3119C238.738 51.9565 246.012 58.0924 248.226 58.8515C249.428 59.8636 254.995 63.7222 254.742 64.165C254.299 64.9241 249.112 67.1381 241.394 70.8702C231.02 75.8674 233.614 81.1177 239.813 80.6117C248.542 79.9158 263.091 76.753 270.935 72.3883C275.679 69.7316 276.375 66.1892 276.628 63.7222C277.261 57.4598 266.634 47.0858 261.004 43.1639Z" fill="white" stroke="#263238" stroke-miterlimit="10"/>
<path d="M236.903 45.3777C241.141 45.6307 242.976 46.453 246.392 48.8568C246.455 48.92 246.518 48.7935 246.455 48.7303C243.355 46.0735 241.205 44.6819 236.903 45.1246C236.713 45.1879 236.713 45.3777 236.903 45.3777Z" fill="#263238"/>
<path d="M238.042 40.9498C242.407 41.5824 244.431 42.468 248.163 44.7452C248.226 44.7452 248.289 44.6819 248.226 44.6187C244.747 42.0884 242.596 40.76 238.105 40.6968C237.915 40.76 237.852 40.9498 238.042 40.9498Z" fill="#263238"/>
<path d="M240.319 36.585C244.494 37.4706 246.708 38.3562 250.124 41.0762C250.187 41.1395 250.314 41.013 250.25 40.9497C247.087 37.9134 244.304 36.7748 240.382 36.4585C240.066 36.4585 240.066 36.5218 240.319 36.585Z" fill="#263238"/>
<path d="M240.509 49.9317C243.355 49.0461 246.139 51.3866 248.416 52.7782C248.542 52.8415 248.669 52.8415 248.732 52.715C248.732 52.715 248.732 52.6517 248.795 52.6517C250.44 50.6908 253.413 48.4135 256.133 48.6666C256.196 48.6666 256.196 48.6666 256.196 48.6033C256.196 48.5401 256.196 48.5401 256.133 48.5401C253.287 47.8442 250.187 49.8684 248.479 52.1457C246.202 50.6275 243.292 48.4135 240.509 49.9317C240.509 49.8684 240.509 49.9317 240.509 49.9317Z" fill="#263238"/>
<path d="M262.775 78.271L247.783 66.7583C247.783 66.7583 237.662 71.6923 234.942 74.6653C232.222 77.6384 233.804 81.3705 241.205 82.0663C249.744 82.8887 262.775 78.271 262.775 78.271Z" fill="white" stroke="#263238" stroke-miterlimit="10"/>
<path d="M259.043 78.6506C253.35 73.6534 247.277 68.8459 246.075 68.0236C246.012 67.9603 245.949 68.0868 246.012 68.0868C250.124 71.8822 254.425 75.4246 258.98 78.7139L259.043 78.6506Z" fill="#263238"/>
<path d="M249.934 80.8647C248.795 81.0545 247.72 81.4973 246.771 82.1299C246.328 82.4462 245.886 82.8889 245.569 83.3317C245.38 83.5215 245.253 83.7745 245.063 84.0276C244.937 84.2806 244.81 84.4704 244.684 84.7234C244.684 84.7866 244.747 84.7866 244.747 84.7866C244.937 84.5969 245.063 84.4071 245.253 84.2173C245.443 84.0276 245.633 83.8378 245.822 83.648C246.202 83.2685 246.645 82.9522 247.087 82.6359C247.91 81.9401 248.859 81.434 249.934 81.0545C249.997 81.0545 249.997 80.9913 249.997 80.9913C249.997 80.9913 249.997 80.8647 249.934 80.8647Z" fill="#263238"/>
<g opacity="0.1">
<path opacity="0.1" d="M250.314 68.6559H244.051C244.684 68.3396 245.316 68.0233 245.822 67.707H249.112L250.314 68.6559Z" fill="black"/>
<path opacity="0.1" d="M254.235 71.692H238.801C239.307 71.3757 239.813 71.0594 240.319 70.7432H253.034L254.235 71.692Z" fill="black"/>
<path opacity="0.1" d="M258.157 74.7284H234.879L234.942 74.6651C235.195 74.3488 235.512 74.0958 235.828 73.8428H256.955L258.157 74.7284Z" fill="black"/>
<path opacity="0.1" d="M262.143 77.765H233.804C233.74 77.4487 233.804 77.1324 233.867 76.8794H261.004L262.143 77.765Z" fill="black"/>
<path opacity="0.1" d="M257.588 79.8521C256.449 80.1683 255.184 80.4846 253.856 80.8009H236.334C235.828 80.5479 235.385 80.2316 234.942 79.8521H257.588Z" fill="black"/>
</g>
<path d="M227.984 39.3052C227.984 39.3052 224.189 40.8233 223.43 44.682C222.671 48.5406 223.556 52.5257 223.872 52.7788C224.189 53.0318 227.984 39.3052 227.984 39.3052Z" fill="#263238"/>
<path d="M223.936 49.4263C223.683 50.5017 223.556 51.5771 223.493 52.6524C223.43 53.791 223.43 54.8664 223.43 56.005C223.43 56.0683 223.556 56.0683 223.556 56.005C223.556 54.9297 223.619 53.791 223.746 52.7157C223.872 51.6403 223.999 50.565 224.062 49.4263C224.062 49.3631 223.936 49.3631 223.936 49.4263Z" fill="#263238"/>
<path d="M228.047 43.5433C228.933 44.1759 229.882 44.7452 230.894 45.0615C232.032 45.3778 233.234 45.3778 234.436 45.0615C235.575 44.8085 236.713 44.3657 237.726 43.7331C238.611 43.2271 239.433 42.5312 240.382 42.0885C240.635 41.9619 240.825 42.3415 240.635 42.468C238.927 44.2392 236.65 45.441 234.183 45.8206C231.906 46.2634 229.565 45.3778 228.047 43.5433C228.047 43.6066 228.047 43.5433 228.047 43.5433Z" fill="#263238"/>
<path d="M244.494 51.7036C243.925 51.3873 243.292 51.5771 242.66 51.9566C243.039 49.1734 243.039 46.5166 242.596 44.9985C240.825 39.1156 232.602 36.6486 227.921 40.0645C224.758 42.4049 221.722 57.3967 224.758 62.2042C225.96 64.1019 227.668 65.1772 229.565 65.6833C229.502 66.1261 229.502 66.5689 229.439 67.0117C229.376 67.2647 227.668 74.2861 230.135 75.2982C232.665 76.3736 237.789 73.0843 240.066 70.1745C240.193 69.9847 240.762 60.9391 241.078 59.1679C241.078 59.1679 241.078 59.1679 241.015 59.1046C241.015 59.0414 241.078 58.9781 241.078 58.8516C241.394 58.8516 241.711 58.8516 242.027 58.7251C244.051 58.0293 246.139 52.7157 244.494 51.7036Z" fill="white" stroke="black" stroke-miterlimit="10"/>
<path d="M244.747 51.7665C244.367 51.5135 243.861 51.387 243.419 51.5767C243.355 51.5767 243.355 51.64 243.419 51.64C243.672 51.5767 243.988 51.5767 244.241 51.64C244.494 51.7032 245.063 51.9563 245.063 53.2846C244.937 54.2967 244.684 55.3088 244.241 56.2577C244.241 56.3209 244.304 56.3209 244.304 56.3209C244.62 55.7516 244.874 55.1191 245.063 54.4865C245.19 53.7274 245.443 52.3358 244.747 51.7665Z" fill="#263238"/>
<path d="M241.015 71.0597C240.572 71.5657 240.193 72.0718 239.687 72.5778C239.18 73.0839 238.738 73.5267 238.168 73.9695C237.156 74.7918 236.018 75.5509 234.879 76.1202C233.677 76.816 232.286 77.1323 230.831 77.0058C229.566 76.816 228.49 75.8672 228.047 74.602C227.478 73.0206 227.858 71.3127 228.237 69.668C228.237 69.6048 228.174 69.6048 228.174 69.668C227.731 71.376 227.415 72.7676 227.731 74.349C227.921 75.6141 228.743 76.6895 229.945 77.2588C232.728 78.3974 235.701 76.3732 237.789 74.6653C238.421 74.1593 238.991 73.5899 239.497 73.0206C240.066 72.4513 240.635 71.8188 241.078 71.1229C241.141 71.0597 241.015 70.9964 241.015 71.0597Z" fill="#263238"/>
<path d="M264.103 132.482H37.3295V140.579H264.103V132.482Z" fill="#37474F"/>
<path d="M264.103 137.416H37.3295V140.579H264.103V137.416Z" fill="#455A64"/>
<path d="M45.4895 253.744H42.2002L51.6886 140.579H60.0385L45.4895 253.744Z" fill="#455A64"/>
<path d="M60.0385 140.579L59.0896 148.106H51.0561L51.6887 140.579H60.0385Z" fill="#263238"/>
<path d="M256.007 253.744H259.296L249.807 140.579H241.458L256.007 253.744Z" fill="#455A64"/>
<path d="M241.458 140.579L242.47 148.106H250.44L249.807 140.579H241.458Z" fill="#263238"/>
<path d="M177.505 132.482H212.55V129.762L177.505 128.623V132.482Z" fill="#455A64"/>
<path d="M149.989 132.418H173.078C175.038 132.418 172.192 126.789 164.981 124.638C157.77 122.487 147.712 130.331 149.989 132.418Z" fill="#37474F"/>
<path d="M159.035 132.419C158.655 131.217 158.149 130.078 157.517 129.003C157.2 128.497 156.821 127.991 156.441 127.548C155.998 127.105 155.556 126.662 155.113 126.283C155.745 126.472 156.315 126.789 156.821 127.232C157.327 127.674 157.77 128.18 158.086 128.75C158.402 129.319 158.655 129.888 158.845 130.584C159.035 131.153 159.098 131.786 159.035 132.419Z" fill="#263238"/>
<path d="M156.315 127.105C155.113 127.864 153.911 128.623 152.772 129.445C152.203 129.825 151.634 130.268 151.191 130.774C150.685 131.28 150.305 131.849 150.052 132.482C150.052 131.723 150.369 131.027 150.811 130.458C151.254 129.888 151.823 129.382 152.393 128.939C152.962 128.497 153.658 128.18 154.29 127.864C154.923 127.485 155.619 127.231 156.315 127.105Z" fill="#263238"/>
<path d="M133.416 121.539H189.587L180.668 79.7261H124.433L133.416 121.539Z" fill="#455A64"/>
<path d="M131.328 121.539H187.5L178.581 79.7261H122.409L131.328 121.539Z" fill="#37474F"/>
<path d="M161.628 106.547H162.957L160.932 97.1851H159.604L161.628 106.547Z" fill="#263238"/>
<path d="M159.035 106.547H160.363L158.339 97.1851H157.01L159.035 106.547Z" fill="#263238"/>
<path d="M156.441 106.547H157.77L155.745 97.1851H154.417L156.441 106.547Z" fill="#263238"/>
<path d="M153.848 106.547H155.176L153.152 97.1851H151.823L153.848 106.547Z" fill="#263238"/>
<path d="M151.254 106.547H152.519L150.558 97.1851H149.23L151.254 106.547Z" fill="#263238"/>
<path d="M148.597 106.547H149.926L147.965 97.1851H146.636L148.597 106.547Z" fill="#263238"/>
<path d="M146.004 106.547H147.332L145.308 97.1851H144.043L146.004 106.547Z" fill="#263238"/>
<path d="M147.206 132.482H174.849V130.331L147.206 129.445V132.482Z" fill="#455A64"/>
<path d="M139.678 132.482H154.543L163.463 109.014H148.661L139.678 132.482Z" fill="#455A64"/>
<path d="M137.274 132.482H152.076L160.996 109.014H146.194L137.274 132.482Z" fill="#263238"/>
<path d="M71.9307 122.171H37.3295V92.8833L54.6617 81.9399L71.9307 92.8833V122.171Z" fill="white" stroke="#263238" stroke-miterlimit="10"/>
<path opacity="0.2" d="M71.9307 122.171H37.3295V92.8833L54.6617 81.9399L71.9307 92.8833V122.171Z" fill="black"/>
<path d="M69.9697 117.49H39.2904V78.0811H62.0627L69.9697 85.6086V117.49Z" fill="#EBEBEB"/>
<path d="M62.0627 78.0811L69.9697 85.6086H62.0627V78.0811Z" fill="#DBDBDB"/>
<path d="M59.4059 84.7231H42.3267V85.7352H59.4059V84.7231Z" fill="#DBDBDB"/>
<path d="M59.4059 87.2534H42.3267V88.2655H59.4059V87.2534Z" fill="#DBDBDB"/>
<path d="M59.4059 89.8472H42.3267V90.8593H59.4059V89.8472Z" fill="#DBDBDB"/>
<path d="M67.313 92.377H42.3267V93.389H67.313V92.377Z" fill="#DBDBDB"/>
<path d="M67.313 94.9072H42.3267V95.9193H67.313V94.9072Z" fill="#DBDBDB"/>
<path d="M67.313 97.5005H42.3267V98.5126H67.313V97.5005Z" fill="#DBDBDB"/>
<path d="M67.313 100.031H42.3267V101.043H67.313V100.031Z" fill="#DBDBDB"/>
<path d="M67.313 102.625H42.3267V103.637H67.313V102.625Z" fill="#DBDBDB"/>
<path d="M67.313 105.155H42.3267V106.167H67.313V105.155Z" fill="#DBDBDB"/>
<path d="M67.313 107.685H42.3267V108.697H67.313V107.685Z" fill="#DBDBDB"/>
<path d="M67.313 110.279H42.3267V111.291H67.313V110.279Z" fill="#DBDBDB"/>
<path d="M67.313 112.809H42.3267V113.821H67.313V112.809Z" fill="#DBDBDB"/>
<path d="M71.9307 100.221V122.171H37.3295V100.221C38.7844 101.043 40.3025 101.929 41.7574 102.814C43.2123 103.7 44.6672 104.585 46.1221 105.471C47.7668 106.483 49.3482 107.432 50.9928 108.444H51.0561L50.9928 108.507L54.5984 110.785C55.8003 110.025 57.0022 109.266 58.2041 108.507L58.1408 108.444H58.2041C59.8487 107.432 61.4301 106.42 63.0748 105.471C64.5297 104.585 65.9846 103.7 67.4395 102.814C69.0209 101.929 70.4758 101.043 71.9307 100.221Z" fill="white" stroke="#263238" stroke-miterlimit="10"/>
<path d="M71.9307 100.221C70.539 101.233 69.0841 102.118 67.6925 103.13C66.3009 104.143 64.846 105.028 63.3911 105.977C61.9362 106.926 60.418 107.938 58.8999 108.887L58.7734 108.95L54.7882 111.48L54.5984 111.607L54.4087 111.48C53.0803 110.658 51.7519 109.772 50.4235 108.95C50.3603 108.95 50.297 108.887 50.297 108.887C48.7789 107.938 47.324 106.989 45.8058 105.977C44.2877 104.965 42.9593 104.079 41.5676 103.13C40.176 102.182 38.7211 101.233 37.3295 100.221C38.7844 101.043 40.3025 101.929 41.7574 102.814C43.2123 103.7 44.6672 104.585 46.1221 105.471C47.7668 106.483 49.3482 107.432 50.9928 108.444L54.5984 110.721C55.8003 109.962 57.0022 109.203 58.2041 108.444C59.8487 107.432 61.4301 106.42 63.0748 105.471C64.5297 104.585 65.9846 103.7 67.4395 102.814C69.0209 101.929 70.4758 101.043 71.9307 100.221Z" fill="white"/>
<path d="M51.0561 108.444L50.4868 108.95C49.6012 109.709 48.7156 110.405 47.83 111.101C46.7547 111.923 45.6161 112.745 44.4774 113.568C43.3388 114.39 42.2002 115.149 40.9983 115.908C39.7965 116.667 38.6579 117.363 37.456 118.059C38.5314 117.173 39.6067 116.288 40.6821 115.465C41.7574 114.643 42.896 113.821 44.0347 112.998C45.1733 112.176 46.3119 111.417 47.5138 110.658C48.4626 110.025 49.4114 109.456 50.3603 108.887L51.0561 108.444Z" fill="white"/>
<path d="M71.8674 117.933C70.6656 117.237 69.4637 116.541 68.3251 115.782C67.1865 115.023 65.9846 114.264 64.846 113.442C63.7074 112.62 62.5687 111.86 61.4934 110.975C60.6078 110.279 59.7222 109.583 58.8366 108.887C58.6469 108.761 58.4571 108.571 58.2673 108.445L58.2041 108.381H58.2673L58.9631 108.761C59.912 109.33 60.8608 109.899 61.8097 110.532C62.9483 111.291 64.1502 112.05 65.2888 112.873C66.4274 113.695 67.566 114.454 68.6413 115.34C69.7167 116.162 70.7921 117.047 71.8674 117.933Z" fill="white"/>
<path d="M71.8674 127.801C75.0116 127.801 77.5605 125.252 77.5605 122.108C77.5605 118.963 75.0116 116.415 71.8674 116.415C68.7232 116.415 66.1743 118.963 66.1743 122.108C66.1743 125.252 68.7232 127.801 71.8674 127.801Z" fill="#37474F"/>
<path d="M74.6507 120.653H69.0209V125.777H74.6507V120.653Z" fill="white"/>
<path d="M74.1446 122.234H73.5753V119.957C73.5121 119.008 72.6898 118.312 71.8042 118.375C70.9818 118.438 70.286 119.134 70.2228 119.957V122.234H69.6535V119.957C69.5902 118.691 70.539 117.679 71.8042 117.553C73.0693 117.49 74.0814 118.438 74.2079 119.704C74.2079 119.767 74.2079 119.893 74.2079 119.957L74.1446 122.234Z" fill="white"/>
<path d="M72.1204 123.246L72.3735 124.385H71.3614L71.6144 123.246C71.4879 123.183 71.3614 122.993 71.3614 122.803C71.3614 122.55 71.5511 122.297 71.8674 122.297C72.1205 122.297 72.3735 122.487 72.3735 122.803C72.3735 122.993 72.247 123.183 72.1204 123.246Z" fill="#37474F"/>
<path d="M241.647 54.3605C240.319 54.5502 239.433 50.5018 239.307 48.9837C239.117 47.6553 239.37 43.4804 239.37 43.2273C239.37 42.9743 233.298 46.0106 230.261 44.5557C227.225 43.1008 225.517 39.938 225.707 38.6096C225.897 37.2813 230.388 34.498 233.804 34.8775C237.219 35.2571 241.205 40.3176 241.205 40.3176C240.762 39.6217 240.319 38.8627 240.003 38.0403C240.066 37.9138 242.153 39.1157 242.343 40.7603C242.343 40.7603 242.217 38.7361 242.407 38.7361C242.596 38.7361 244.051 40.6971 243.419 41.899C243.419 41.899 245.127 43.9232 245 45.8209C244.874 47.7185 243.229 54.1707 241.647 54.3605Z" fill="#263238"/>
<path d="M153.468 44.2391H121.018V2.55322H145.118L153.468 10.4603V44.2391Z" fill="#EBEBEB"/>
<path d="M145.118 2.55322L153.468 10.4603H145.118V2.55322Z" fill="#DBDBDB"/>
<path d="M142.208 9.57471H124.18V10.6501H142.208V9.57471Z" fill="#DBDBDB"/>
<path d="M142.208 12.2314H124.18V13.3068H142.208V12.2314Z" fill="#DBDBDB"/>
<path d="M142.208 14.9517H124.18V16.027H142.208V14.9517Z" fill="#DBDBDB"/>
<path d="M150.622 17.6719H124.18V18.7472H150.622V17.6719Z" fill="#DBDBDB"/>
<path d="M150.622 20.3286H124.18V21.404H150.622V20.3286Z" fill="#DBDBDB"/>
<path d="M150.622 23.0488H124.18V24.1242H150.622V23.0488Z" fill="#DBDBDB"/>
<path d="M150.622 25.7681H124.18V26.8434H150.622V25.7681Z" fill="#DBDBDB"/>
<path d="M150.622 28.4248H124.18V29.5002H150.622V28.4248Z" fill="#DBDBDB"/>
<path d="M150.622 31.145H124.18V32.2204H150.622V31.145Z" fill="#DBDBDB"/>
<path d="M150.622 33.8652H124.18V34.9406H150.622V33.8652Z" fill="#DBDBDB"/>
<path d="M150.622 36.522H124.18V37.5973H150.622V36.522Z" fill="#DBDBDB"/>
<path d="M150.622 39.2422H124.18V40.3175H150.622V39.2422Z" fill="#DBDBDB"/>
<path d="M153.468 48.4774C156.612 48.4774 159.161 45.9286 159.161 42.7844C159.161 39.6402 156.612 37.0913 153.468 37.0913C150.324 37.0913 147.775 39.6402 147.775 42.7844C147.775 45.9286 150.324 48.4774 153.468 48.4774Z" fill="#C7C7C7"/>
<path d="M156.315 41.3296H150.685V46.4534H156.315V41.3296Z" fill="white"/>
<path d="M155.745 42.9109H155.176V40.6337C155.239 39.6848 154.543 38.9257 153.595 38.8625C152.646 38.7992 151.887 39.4951 151.823 40.4439C151.823 40.5072 151.823 40.5704 151.823 40.6337V42.9109H151.254V40.6337C151.254 39.3685 152.266 38.3564 153.531 38.3564C154.797 38.3564 155.809 39.3685 155.809 40.6337L155.745 42.9109Z" fill="white"/>
<path d="M153.721 43.923L153.974 45.0616H152.962L153.215 43.923C153.089 43.8597 152.962 43.6699 152.962 43.4802C152.962 43.2271 153.215 42.9741 153.468 42.9741C153.721 42.9741 153.974 43.2271 153.974 43.4802C153.974 43.6699 153.848 43.8597 153.721 43.923Z" fill="#C7C7C7"/>
<path d="M195.723 61.1916L195.787 93.5788C195.787 95.4132 194.332 96.8681 192.497 96.8681L141.07 96.9947C139.235 96.9947 137.781 95.5398 137.781 93.7053L137.717 61.3181C137.717 59.6102 139.046 58.2818 140.754 58.2818L192.624 58.1553C194.332 58.1553 195.723 59.4837 195.723 61.1916Z" fill="#EBEBEB"/>
<path d="M187.437 89.0881C187.437 90.7327 186.108 92.1244 184.4 92.1244C182.756 92.1244 181.364 90.796 181.364 89.0881C181.364 87.4434 182.693 86.0518 184.4 86.0518C186.108 86.0518 187.437 87.3801 187.437 89.0881Z" fill="#DBDBDB"/>
<path d="M191.169 89.0246C191.169 90.6693 189.841 92.0609 188.133 92.0609C186.488 92.0609 185.096 90.7325 185.096 89.0246C185.096 87.3799 186.425 85.9883 188.069 85.9883C189.777 86.0515 191.169 87.3799 191.169 89.0246Z" fill="#328CBD"/>
<path d="M145.308 63.8486H150.875C152.33 63.8486 153.531 65.0505 153.531 66.5054V68.7194C153.531 70.1743 152.33 71.3761 150.875 71.3761H145.308C143.853 71.3761 142.651 70.1743 142.651 68.7194V66.5054C142.651 64.9872 143.79 63.8486 145.308 63.8486Z" fill="#328CBD"/>
<path d="M189.018 67.8343H184.084C182.946 67.8343 181.997 66.9487 181.997 65.8101C181.997 64.6715 182.882 63.7227 184.021 63.7227H188.955C190.094 63.7227 191.042 64.6082 191.042 65.7469C191.106 66.8855 190.157 67.8343 189.018 67.8343Z" fill="white"/>
<path d="M170.23 86.3957L142.713 86.4678L142.717 87.7962L170.233 87.7241L170.23 86.3957Z" fill="#DBDBDB"/>
<path d="M162.196 89.4426L142.713 89.4937L142.717 90.822L162.2 90.771L162.196 89.4426Z" fill="#DBDBDB"/>
<path d="M180.161 63.7048L166.434 63.7407L166.438 65.0691L180.165 65.0332L180.161 63.7048Z" fill="#DBDBDB"/>
<path d="M143.916 79.1572H143.727V81.1814H143.916V79.1572Z" fill="#C7C7C7"/>
<path d="M144.802 80.1055H142.778V80.2952H144.802V80.1055Z" fill="#C7C7C7"/>
<path d="M144.48 79.3882L143.004 80.8643L143.138 80.9984L144.614 79.5224L144.48 79.3882Z" fill="#C7C7C7"/>
<path d="M143.136 79.3946L143.001 79.5288L144.477 81.0049L144.612 80.8707L143.136 79.3946Z" fill="#C7C7C7"/>
<path d="M146.383 79.1572H146.194V81.1814H146.383V79.1572Z" fill="#C7C7C7"/>
<path d="M147.269 80.1055H145.245V80.2952H147.269V80.1055Z" fill="#C7C7C7"/>
<path d="M146.905 79.4417L145.474 80.873L145.608 81.0072L147.039 79.5759L146.905 79.4417Z" fill="#C7C7C7"/>
<path d="M145.609 79.3854L145.474 79.5195L146.905 80.9511L147.04 80.8169L145.609 79.3854Z" fill="#C7C7C7"/>
<path d="M148.85 79.1572H148.661V81.1814H148.85V79.1572Z" fill="#C7C7C7"/>
<path d="M149.736 80.1055H147.712V80.2952H149.736V80.1055Z" fill="#C7C7C7"/>
<path d="M148.091 80.9911L147.965 80.8646L149.42 79.4097L149.546 79.5362L148.091 80.9911Z" fill="#C7C7C7"/>
<path d="M149.42 80.9911L147.965 79.5362L148.091 79.4097L149.546 80.8646L149.42 80.9911Z" fill="#C7C7C7"/>
<path d="M151.317 79.1572H151.128V81.1814H151.317V79.1572Z" fill="#C7C7C7"/>
<path d="M152.203 80.1055H150.179V80.2952H152.203V80.1055Z" fill="#C7C7C7"/>
<path d="M150.558 80.9911L150.432 80.8646L151.887 79.4097L152.013 79.5362L150.558 80.9911Z" fill="#C7C7C7"/>
<path d="M151.887 80.9911L150.432 79.5362L150.558 79.4097L152.013 80.8646L151.887 80.9911Z" fill="#C7C7C7"/>
<path d="M156.757 79.1572H156.568V81.1814H156.757V79.1572Z" fill="#C7C7C7"/>
<path d="M157.643 80.1055H155.619V80.2952H157.643V80.1055Z" fill="#C7C7C7"/>
<path d="M155.998 80.9911L155.872 80.8646L157.327 79.4097L157.453 79.5362L155.998 80.9911Z" fill="#C7C7C7"/>
<path d="M157.327 80.9911L155.872 79.5362L155.998 79.4097L157.453 80.8646L157.327 80.9911Z" fill="#C7C7C7"/>
<path d="M159.224 79.1572H159.035V81.1814H159.224V79.1572Z" fill="#C7C7C7"/>
<path d="M160.11 80.1055H158.086V80.2952H160.11V80.1055Z" fill="#C7C7C7"/>
<path d="M158.465 80.9911L158.339 80.8646L159.794 79.4097L159.92 79.5362L158.465 80.9911Z" fill="#C7C7C7"/>
<path d="M159.794 80.9911L158.339 79.5362L158.465 79.4097L159.92 80.8646L159.794 80.9911Z" fill="#C7C7C7"/>
<path d="M161.691 79.1572H161.502V81.1814H161.691V79.1572Z" fill="#C7C7C7"/>
<path d="M162.577 80.1055H160.553V80.2952H162.577V80.1055Z" fill="#C7C7C7"/>
<path d="M160.932 80.9911L160.806 80.8646L162.261 79.4097L162.387 79.5362L160.932 80.9911Z" fill="#C7C7C7"/>
<path d="M162.261 80.9911L160.806 79.5362L160.932 79.4097L162.387 80.8646L162.261 80.9911Z" fill="#C7C7C7"/>
<path d="M164.158 79.1572H163.969V81.1814H164.158V79.1572Z" fill="#C7C7C7"/>
<path d="M165.044 80.1055H163.02V80.2952H165.044V80.1055Z" fill="#C7C7C7"/>
<path d="M163.399 80.9911L163.273 80.8646L164.728 79.4097L164.854 79.5362L163.399 80.9911Z" fill="#C7C7C7"/>
<path d="M164.728 80.9911L163.273 79.5362L163.399 79.4097L164.854 80.8646L164.728 80.9911Z" fill="#C7C7C7"/>
<path d="M169.598 79.1572H169.409V81.1814H169.598V79.1572Z" fill="#C7C7C7"/>
<path d="M170.484 80.1055H168.46V80.2952H170.484V80.1055Z" fill="#C7C7C7"/>
<path d="M168.839 80.9911L168.713 80.8646L170.168 79.4097L170.294 79.5362L168.839 80.9911Z" fill="#C7C7C7"/>
<path d="M170.168 80.9911L168.713 79.5362L168.839 79.4097L170.294 80.8646L170.168 80.9911Z" fill="#C7C7C7"/>
<path d="M172.065 79.1572H171.876V81.1814H172.065V79.1572Z" fill="#C7C7C7"/>
<path d="M172.951 80.1055H170.927V80.2952H172.951V80.1055Z" fill="#C7C7C7"/>
<path d="M171.306 80.9911L171.18 80.8646L172.635 79.4097L172.761 79.5362L171.306 80.9911Z" fill="#C7C7C7"/>
<path d="M172.635 80.9911L171.18 79.5362L171.306 79.4097L172.761 80.8646L172.635 80.9911Z" fill="#C7C7C7"/>
<path d="M174.532 79.1572H174.343V81.1814H174.532V79.1572Z" fill="#C7C7C7"/>
<path d="M175.418 80.1055H173.394V80.2952H175.418V80.1055Z" fill="#C7C7C7"/>
<path d="M173.773 80.9911L173.647 80.8646L175.102 79.4097L175.228 79.5362L173.773 80.9911Z" fill="#C7C7C7"/>
<path d="M175.102 80.9911L173.647 79.5362L173.773 79.4097L175.228 80.8646L175.102 80.9911Z" fill="#C7C7C7"/>
<path d="M176.999 79.1572H176.81V81.1814H176.999V79.1572Z" fill="#C7C7C7"/>
<path d="M177.885 80.1055H175.861V80.2952H177.885V80.1055Z" fill="#C7C7C7"/>
<path d="M176.24 80.9911L176.114 80.8646L177.569 79.4097L177.695 79.5362L176.24 80.9911Z" fill="#C7C7C7"/>
<path d="M177.569 80.9911L176.114 79.5362L176.24 79.4097L177.695 80.8646L177.569 80.9911Z" fill="#C7C7C7"/>
<path d="M182.44 79.1572H182.25V81.1814H182.44V79.1572Z" fill="#C7C7C7"/>
<path d="M183.325 80.1055H181.301V80.2952H183.325V80.1055Z" fill="#C7C7C7"/>
<path d="M181.68 80.9911L181.491 80.8646L183.009 79.4097L183.135 79.5362L181.68 80.9911Z" fill="#C7C7C7"/>
<path d="M183.009 80.9911L181.491 79.5362L181.68 79.4097L183.135 80.8646L183.009 80.9911Z" fill="#C7C7C7"/>
<path d="M184.907 79.1572H184.717V81.1814H184.907V79.1572Z" fill="#C7C7C7"/>
<path d="M185.792 80.1055H183.768V80.2952H185.792V80.1055Z" fill="#C7C7C7"/>
<path d="M184.147 80.9911L184.021 80.8646L185.476 79.4097L185.602 79.5362L184.147 80.9911Z" fill="#C7C7C7"/>
<path d="M185.476 80.9911L184.021 79.5362L184.147 79.4097L185.602 80.8646L185.476 80.9911Z" fill="#C7C7C7"/>
<path d="M187.374 79.1572H187.184V81.1814H187.374V79.1572Z" fill="#C7C7C7"/>
<path d="M188.259 80.1055H186.235V80.2952H188.259V80.1055Z" fill="#C7C7C7"/>
<path d="M186.614 80.9911L186.488 80.8646L187.943 79.4097L188.069 79.5362L186.614 80.9911Z" fill="#C7C7C7"/>
<path d="M187.943 80.9911L186.488 79.5362L186.614 79.4097L188.069 80.8646L187.943 80.9911Z" fill="#C7C7C7"/>
<path d="M189.841 79.1572H189.651V81.1814H189.841V79.1572Z" fill="#C7C7C7"/>
<path d="M190.726 80.1055H188.702V80.2952H190.726V80.1055Z" fill="#C7C7C7"/>
<path d="M189.081 80.9911L188.955 80.8646L190.41 79.4097L190.536 79.5362L189.081 80.9911Z" fill="#C7C7C7"/>
<path d="M190.41 80.9911L188.955 79.5362L189.081 79.4097L190.536 80.8646L190.41 80.9911Z" fill="#C7C7C7"/>
<path d="M195.787 102.562C198.931 102.562 201.48 100.013 201.48 96.8689C201.48 93.7247 198.931 91.1758 195.787 91.1758C192.642 91.1758 190.094 93.7247 190.094 96.8689C190.094 100.013 192.642 102.562 195.787 102.562Z" fill="#C7C7C7"/>
<path d="M198.633 95.4136H193.003V100.537H198.633V95.4136Z" fill="white"/>
<path d="M198.064 96.9949H197.495V94.7177C197.431 93.7688 196.609 93.073 195.723 93.1363C194.901 93.1995 194.205 93.8953 194.142 94.7177V96.9949H193.573V94.7177C193.573 93.4525 194.585 92.4404 195.85 92.4404C197.115 92.4404 198.127 93.4525 198.127 94.7177L198.064 96.9949Z" fill="white"/>
<path d="M196.04 98.0704L196.293 99.209H195.281L195.534 98.0704C195.407 98.0072 195.281 97.8174 195.281 97.6276C195.281 97.3746 195.534 97.1216 195.787 97.1216C196.04 97.1216 196.293 97.3746 196.293 97.6276C196.293 97.8174 196.166 97.9439 196.04 98.0704Z" fill="#C7C7C7"/>
<path d="M66.0845 14.3813L61.4191 42.2695L99.7887 48.6885L104.454 20.8003L66.0845 14.3813Z" fill="#EBEBEB"/>
<path d="M67.4332 16.2716L63.3105 40.9155L98.4983 46.8022L102.621 22.1582L67.4332 16.2716Z" fill="white"/>
<path d="M70.4125 23.9338C70.1595 25.5152 71.2349 27.0334 72.8163 27.3496C74.3977 27.6027 75.9158 26.5273 76.2321 24.9459C76.4852 23.3645 75.4098 21.8463 73.8284 21.5301C72.1837 21.277 70.6656 22.3524 70.4125 23.9338Z" fill="#DBDBDB"/>
<path d="M79.8377 38.23L99.4472 41.5193L91.8564 26.5908L79.8377 38.23Z" fill="#DBDBDB"/>
<path d="M72.1837 36.9649L88.3141 39.6217L81.6722 29.6904L72.1837 36.9649Z" fill="#EBEBEB"/>
<path d="M64.2206 35.5875L63.3334 40.8906L98.5212 46.7773L99.4084 41.4741L64.2206 35.5875Z" fill="#EBEBEB"/>
<path d="M89.3895 22.7954H50.4236V51.0077H89.3895V22.7954Z" fill="#EBEBEB"/>
<path d="M87.6815 24.4399H52.005V49.4262H87.6815V24.4399Z" fill="white"/>
<path d="M56.1799 31.5248C56.1799 33.1695 57.5083 34.4979 59.1529 34.4979C60.7976 34.4979 62.126 33.1695 62.126 31.5248C62.126 29.8801 60.7976 28.5518 59.1529 28.5518C57.5083 28.5518 56.1799 29.8801 56.1799 31.5248Z" fill="#DBDBDB"/>
<path d="M67.8823 44.0498H87.7448L77.8135 30.5762L67.8823 44.0498Z" fill="#DBDBDB"/>
<path d="M60.1018 44.0497H76.4852L68.3251 35.3203L60.1018 44.0497Z" fill="#EBEBEB"/>
<path d="M87.6815 44.0498H52.005V49.4266H87.6815V44.0498Z" fill="#EBEBEB"/>
<path d="M110.707 156.772H54.9148V234.008H110.707V156.772Z" fill="#EBEBEB"/>
<path d="M113.427 153.926H52.1947V156.772H113.427V153.926Z" fill="#DBDBDB"/>
<path d="M132.657 153.926H113.427V156.772H132.657V153.926Z" fill="#EBEBEB"/>
<path d="M129.684 156.772H110.77V234.008H129.684V156.772Z" fill="#DBDBDB"/>
<path d="M104.761 192.512H60.9241V167.779H104.761V192.512ZM61.1139 192.386H104.571V167.905H61.0506L61.1139 192.386Z" fill="#C7C7C7"/>
<path d="M85.2778 174.99H76.7382V179.924H85.2778V174.99Z" fill="#C7C7C7"/>
<path d="M87.8713 179.608H79.2052V175.306H87.8713V179.608ZM79.3317 179.481H87.6815V175.496H79.3317V179.481Z" fill="#C7C7C7"/>
<path d="M104.761 223.634H60.9241V198.838H104.761V223.634ZM61.1139 223.445H104.571V198.964H61.0506L61.1139 223.445Z" fill="#C7C7C7"/>
<path d="M85.2778 206.112H76.7382V211.046H85.2778V206.112Z" fill="#C7C7C7"/>
<path d="M87.8713 210.73H79.2052V206.429H87.8713V210.73ZM79.3317 210.54H87.6815V206.555H79.3317V210.54Z" fill="#C7C7C7"/>
<path d="M134.554 46.1369C134.554 46.1369 131.139 73.7167 125.446 79.9158C118.677 87.38 113.743 86.2414 110.96 90.1001C108.24 86.2414 103.306 87.3168 96.4741 79.9158C90.7811 73.7167 87.3652 46.1369 87.3652 46.1369C102.294 38.9257 110.96 30.7656 110.96 30.7656C111.276 31.0187 119.879 38.9889 134.554 46.1369Z" fill="#328CBD"/>
<path opacity="0.2" d="M110.96 30.7656V90.1001C108.24 86.2414 103.306 87.3168 96.4741 79.9158C90.7811 73.7167 87.3652 46.1369 87.3652 46.1369C102.294 38.8624 110.96 30.7656 110.96 30.7656Z" fill="black"/>
<path opacity="0.1" d="M134.554 46.1369C134.554 46.1369 131.139 73.7167 125.446 79.9158C118.677 87.38 113.743 86.2414 110.96 90.1001V30.7656C111.276 31.0187 119.879 38.9889 134.554 46.1369Z" fill="black"/>
<path d="M130.886 48.3508C130.886 48.3508 127.976 71.6292 123.232 76.8795C117.475 83.2051 113.3 82.2562 111.023 85.4823C108.683 82.2562 104.571 83.1418 98.8146 76.8795C94.0071 71.6292 91.1606 48.3508 91.1606 48.3508C103.749 42.215 111.086 35.3833 111.086 35.3833C111.086 35.3833 118.298 42.215 130.886 48.3508Z" fill="#328CBD"/>
<path d="M116.969 57.1436H105.014V67.9604H116.969V57.1436Z" fill="white"/>
<path d="M115.767 60.4325H114.565V55.625C114.502 53.6641 112.794 52.1459 110.833 52.2092C108.999 52.2724 107.481 53.7906 107.417 55.625V60.4325H106.216V55.625C106.342 52.9683 108.556 50.944 111.15 51.0073C113.68 51.0706 115.641 53.0948 115.767 55.625V60.4325Z" fill="white"/>
<path d="M111.466 62.6472L111.972 65.051H109.821L110.327 62.6472C109.821 62.3309 109.695 61.6984 110.011 61.1923C110.327 60.6863 110.96 60.5598 111.466 60.876C111.972 61.1923 112.098 61.8249 111.782 62.3309C111.719 62.4575 111.592 62.584 111.466 62.6472Z" fill="#37474F"/>
<path d="M97.676 64.4814H39.6067V73.2741H97.676V64.4814Z" fill="white"/>
<path d="M97.9923 73.5902H39.2904V64.165H97.9923V73.5902ZM39.923 72.9577H97.3597V64.7976H39.923V72.9577Z" fill="#EBEBEB"/>
<path d="M38.0885 74.6024C41.2327 74.6024 43.7816 72.0536 43.7816 68.9094C43.7816 65.7652 41.2327 63.2163 38.0885 63.2163C34.9444 63.2163 32.3955 65.7652 32.3955 68.9094C32.3955 72.0536 34.9444 74.6024 38.0885 74.6024Z" fill="#37474F"/>
<path d="M40.8718 67.4546H35.242V72.5784H40.8718V67.4546Z" fill="white"/>
<path d="M40.3658 69.0359H39.7965V66.7587C39.7965 65.8098 39.0374 65.0508 38.0885 65.0508C37.1397 65.0508 36.3806 65.8098 36.3806 66.7587V69.0359H35.8113V66.7587C35.8113 65.4936 36.8234 64.4814 38.0885 64.4814C39.3537 64.4814 40.3658 65.4936 40.3658 66.7587V69.0359Z" fill="white"/>
<path d="M38.3416 70.1112L38.5946 71.2499H37.5825L37.8355 70.1112C37.709 70.048 37.5825 69.8582 37.5825 69.6684C37.5825 69.4154 37.8355 69.1624 38.1518 69.2257C38.4048 69.2257 38.5946 69.4154 38.5946 69.6684C38.5313 69.8582 38.4681 69.9847 38.3416 70.1112Z" fill="#37474F"/>
<path d="M49.7277 67.0117H49.0952V71.0601H49.7277V67.0117Z" fill="#37474F"/>
<path d="M51.4356 68.7192H47.3872V69.3518H51.4356V68.7192Z" fill="#37474F"/>
<path d="M50.6054 67.3634L47.7428 70.2261L48.1901 70.6734L51.0527 67.8107L50.6054 67.3634Z" fill="#37474F"/>
<path d="M48.1913 67.3662L47.744 67.8135L50.6067 70.6761L51.054 70.2288L48.1913 67.3662Z" fill="#37474F"/>
<path d="M56.5594 67.0117H55.9268V71.0601H56.5594V67.0117Z" fill="#37474F"/>
<path d="M58.2673 68.7192H54.2189V69.3518H58.2673V68.7192Z" fill="#37474F"/>
<path d="M57.4413 67.3722L54.5787 70.2349L55.026 70.6821L57.8886 67.8195L57.4413 67.3722Z" fill="#37474F"/>
<path d="M55.0228 67.3735L54.5755 67.8208L57.4382 70.6834L57.8854 70.2361L55.0228 67.3735Z" fill="#37474F"/>
<path d="M63.3911 67.0117H62.7585V71.0601H63.3911V67.0117Z" fill="#37474F"/>
<path d="M65.099 68.7192H61.0506V69.3518H65.099V68.7192Z" fill="#37474F"/>
<path d="M64.2709 67.3752L61.4083 70.2378L61.8556 70.6851L64.7182 67.8225L64.2709 67.3752Z" fill="#37474F"/>
<path d="M61.8568 67.3784L61.4095 67.8257L64.2722 70.6883L64.7195 70.241L61.8568 67.3784Z" fill="#37474F"/>
<path d="M70.2228 67.0117H69.5902V71.0601H70.2228V67.0117Z" fill="#37474F"/>
<path d="M71.9307 68.7192H67.8823V69.3518H71.9307V68.7192Z" fill="#37474F"/>
<path d="M71.1068 67.3844L68.2442 70.2471L68.6915 70.6944L71.5541 67.8317L71.1068 67.3844Z" fill="#37474F"/>
<path d="M68.6927 67.3877L68.2455 67.835L71.1081 70.6976L71.5554 70.2503L68.6927 67.3877Z" fill="#37474F"/>
<path d="M77.0544 67.0117H76.4219V71.0601H77.0544V67.0117Z" fill="#37474F"/>
<path d="M78.7624 68.7192H74.714V69.3518H78.7624V68.7192Z" fill="#37474F"/>
<path d="M77.9427 67.3937L75.0801 70.2563L75.5274 70.7036L78.39 67.841L77.9427 67.3937Z" fill="#37474F"/>
<path d="M75.5242 67.395L75.0769 67.8423L77.9396 70.7049L78.3869 70.2576L75.5242 67.395Z" fill="#37474F"/>
<path d="M83.8861 67.0117H83.2536V71.0601H83.8861V67.0117Z" fill="#37474F"/>
<path d="M85.5941 68.7192H81.5457V69.3518H85.5941V68.7192Z" fill="#37474F"/>
<path d="M84.8234 67.3547L81.9607 70.2173L82.408 70.6646L85.2707 67.8019L84.8234 67.3547Z" fill="#37474F"/>
<path d="M82.3646 67.4023L81.9173 67.8496L84.7799 70.7122L85.2272 70.265L82.3646 67.4023Z" fill="#37474F"/>
<path d="M48.6524 204.404C48.6524 204.404 34.6095 201.242 26.9554 194.157C19.3014 187.072 15 174.421 15 174.421C20.3135 175.433 25.5638 176.825 30.7508 178.596C32.016 179.924 34.4197 182.707 35.4951 185.301C35.6216 183.72 35.6216 182.075 35.5583 180.494C37.3295 181.253 39.0374 182.265 40.5556 183.53C46.8179 189.033 48.6524 204.404 48.6524 204.404Z" fill="#328CBD"/>
<path d="M23.6661 180.557C21.7684 179.228 19.8075 177.963 17.9098 176.635C17.8465 176.572 17.8465 176.508 17.9098 176.445C17.9098 176.445 17.973 176.382 18.0363 176.445C21.6419 178.596 25.1843 180.936 28.6634 183.34C29.8652 184.162 31.0671 185.048 32.2057 185.934L31.9527 185.491C31.5099 184.795 31.0671 184.099 30.6243 183.403C29.7387 182.012 28.7266 180.683 27.6513 179.418C27.588 179.355 27.6513 179.292 27.7145 179.355C28.7899 180.62 29.8652 181.885 30.8773 183.214C31.3834 183.846 31.7629 184.479 32.2057 185.174C32.3955 185.491 32.6485 185.87 32.8383 186.25L33.028 186.629C34.8625 188.021 36.6336 189.539 38.2783 191.121C39.3537 192.069 40.3025 193.082 41.3146 194.157C40.8086 192.449 40.3025 190.741 39.67 189.096C39.67 189.033 39.7332 189.033 39.7965 189.096C40.429 190.868 41.0616 192.575 41.5676 194.41C42.643 195.549 43.6551 196.75 44.6039 198.015C44.6039 197.952 44.6039 197.889 44.5407 197.762C44.4142 197.13 44.2244 196.434 44.0346 195.802C43.7184 194.536 43.3388 193.271 42.896 192.006C42.0737 189.413 40.8086 187.009 39.1006 184.921C39.0374 184.858 39.1006 184.795 39.1639 184.858C41.8839 188.084 43.5286 192.006 44.5407 196.055C44.6672 196.687 44.857 197.256 44.9835 197.826C45.0467 198.142 45.11 198.458 45.1733 198.775C45.616 199.344 45.9956 199.913 46.4384 200.546C48.8421 204.215 50.8031 208.073 52.3845 212.185C54.1557 216.739 55.6105 221.42 56.8757 226.165C56.8757 226.228 56.7492 226.291 56.7492 226.228C54.0291 218.005 51.1826 209.718 46.5016 202.38C45.4895 200.862 44.4142 199.344 43.2756 197.889C40.9351 197.762 38.6579 197.256 36.4439 196.561C34.0401 195.738 31.7629 194.663 29.6122 193.271C28.4103 192.449 27.2717 191.563 26.1331 190.615C26.1331 190.615 26.0698 190.551 26.1331 190.551C26.1331 190.551 26.1964 190.488 26.1964 190.551C28.1573 192.133 30.308 193.398 32.6485 194.41C34.9257 195.422 37.2662 196.244 39.7332 196.814C40.7453 197.067 41.8207 197.193 42.896 197.383C41.5676 195.802 40.2393 194.22 38.7844 192.765C38.2783 192.322 37.8355 191.816 37.3295 191.374C35.6848 190.235 33.9769 189.223 32.1425 188.401C29.8652 187.262 27.588 186.123 25.3108 184.921C24.0456 184.289 22.7805 183.593 21.4521 182.961C21.3889 182.961 21.4521 182.834 21.5154 182.897C23.8559 184.036 26.1331 185.048 28.4736 186.123C30.6876 187.135 32.9015 188.148 34.989 189.286L35.242 189.413C33.3443 187.768 31.3834 186.187 29.3592 184.668C27.5247 183.277 25.627 181.885 23.6661 180.557Z" fill="#263238"/>
<path d="M24.4885 187.769C25.6271 188.275 26.7657 188.717 27.9043 189.223C29.0429 189.729 30.1815 190.425 31.2569 191.058C31.3201 191.058 31.2569 191.121 31.1936 191.121C30.055 190.552 28.9164 190.109 27.841 189.54C26.7657 188.97 25.5638 188.338 24.4252 187.832C24.4252 187.832 24.4252 187.769 24.4885 187.769Z" fill="#263238"/>
<path d="M94.1969 133.747C91.6034 137.1 90.1485 141.148 90.022 145.386C89.9588 146.651 90.1485 148.423 90.3383 150.447C85.088 153.23 81.1661 158.291 81.1661 158.291C84.1392 156.519 88.1876 155.76 90.4016 156.077C90.3383 157.468 90.1485 158.86 89.8323 160.251C88.8834 160.188 86.9857 160.315 83.8862 161.453C85.7206 161.453 87.555 161.77 89.2629 162.529C86.796 170.499 79.3317 178.659 58.8366 182.138C56.6859 172.397 57.9511 162.149 62.4423 153.23C68.5781 141.148 94.1969 133.747 94.1969 133.747Z" fill="#328CBD"/>
<path d="M51.6887 216.107C52.0682 212.691 52.511 209.339 53.017 205.923C54.0292 199.154 55.4208 192.449 57.1287 185.871C57.951 182.771 58.8999 179.735 60.1018 176.699C60.0385 176.129 60.0385 175.623 60.0385 175.054C60.0385 174.421 60.0385 173.725 60.0385 173.093C60.0385 171.765 60.1018 170.436 60.2283 169.171C60.418 166.578 60.8608 163.984 61.4934 161.454C61.8729 159.999 62.3157 158.544 62.7585 157.089C62.7585 157.026 62.885 157.089 62.8218 157.089C62.126 159.619 61.6199 162.15 61.3036 164.743C60.9241 167.273 60.7343 169.867 60.6078 172.46C60.6078 173.156 60.5446 173.852 60.5446 174.548C60.5446 174.864 60.5446 175.18 60.5446 175.433C61.5567 172.966 62.6953 170.626 64.0237 168.285C66.1111 164.617 68.4516 161.137 71.0451 157.785C71.0451 157.405 71.1084 157.026 71.2349 156.646C71.2981 156.203 71.4246 155.697 71.5512 155.255C71.7409 154.306 71.9939 153.357 72.247 152.471C72.753 150.637 73.4488 148.802 74.0181 146.968C74.0181 146.905 74.1447 146.968 74.0814 146.968C73.5121 148.802 73.1958 150.7 72.753 152.535C72.5633 153.483 72.3735 154.369 72.1205 155.318C71.9939 155.761 71.9307 156.203 71.8042 156.71V156.836C72.6265 155.824 73.4488 154.749 74.3344 153.736C78.2563 149.119 82.5578 144.881 86.8592 140.706C87.3652 140.2 87.9345 139.694 88.5039 139.188H88.5671V139.251C84.4554 143.552 80.3438 147.917 76.4852 152.471C75.5996 153.547 74.6507 154.685 73.7651 155.761C74.2079 155.444 74.714 155.128 75.1568 154.812C76.3586 154.053 77.5605 153.294 78.8256 152.598C80.0908 151.902 81.2926 151.206 82.621 150.574C83.9494 149.941 85.341 149.372 86.6062 148.676C86.6694 148.676 86.7327 148.739 86.6694 148.739C85.341 149.309 84.1392 150.004 82.9373 150.827C81.6722 151.586 80.407 152.345 79.2052 153.104C78.0033 153.863 76.8014 154.622 75.5996 155.381C74.5875 156.014 73.6386 156.71 72.5633 157.342C70.1595 160.378 68.0088 163.604 65.9846 166.894C64.7195 168.981 63.5809 171.132 62.5688 173.346L63.3278 173.03L65.2255 172.207C66.4274 171.638 67.6293 171.132 68.8311 170.626C71.1084 169.614 73.4488 168.728 75.7261 167.59C76.9912 167.02 78.2563 166.324 79.3949 165.565C79.4582 165.502 79.4582 165.629 79.4582 165.629C75.2833 168.538 70.5391 170.563 65.8581 172.65L63.8339 173.536C63.2646 173.789 62.6953 174.042 62.126 174.295C60.7343 177.394 59.5957 180.557 58.6469 183.783C56.8124 190.299 55.3575 196.941 54.2189 203.646C53.0171 210.351 52.258 217.119 51.6254 223.888C51.5622 224.71 51.4989 225.596 51.3724 226.418C51.3724 226.545 51.2459 226.671 51.1194 226.671C50.9928 226.671 50.8663 226.545 50.8663 226.418C50.9928 223.002 51.3724 219.523 51.6887 216.107Z" fill="#263238"/>
<path d="M64.2134 159.492C64.593 157.405 65.1623 155.381 65.7316 153.293C65.7316 153.23 65.8581 153.293 65.7948 153.293C65.2888 155.317 64.9092 157.342 64.5297 159.366C64.1502 161.39 63.7706 163.541 63.5176 165.628C63.5176 165.628 63.4543 165.691 63.4543 165.628C63.5809 163.541 63.8339 161.517 64.2134 159.492Z" fill="#263238"/>
<path d="M73.0061 165.122C74.461 164.173 75.9158 163.351 77.4972 162.592C78.2563 162.212 79.0154 161.833 79.7745 161.453C80.5336 161.074 81.3559 160.757 82.115 160.378C82.115 160.378 82.1782 160.378 82.1782 160.441V160.504C81.4191 160.884 80.7233 161.327 79.9643 161.77C79.2052 162.212 78.4461 162.592 77.687 163.035C76.1689 163.857 74.714 164.743 73.1326 165.375C73.0693 165.375 73.0061 165.375 72.9428 165.312C72.9428 165.249 73.0061 165.122 73.0061 165.122Z" fill="#263238"/>
<path opacity="0.1" d="M48.3994 180.114C48.3994 180.114 35.4318 177.014 29.4857 168.285C23.7926 159.999 21.9582 145.829 21.8317 144.564C22.0847 145.703 24.7415 158.101 33.5974 163.857C40.2393 168.285 46.8179 171.954 48.3994 180.114Z" fill="#263238"/>
<path d="M36.3806 157.722C38.6579 159.872 40.3658 162.592 41.1881 165.629L36.3806 157.722ZM41.1249 165.565C40.176 162.592 38.5313 159.936 36.3174 157.722C36.2541 157.722 36.3174 157.595 36.3806 157.658L41.1249 165.565Z" fill="#263238"/>
<path d="M48.3994 180.114C48.3994 180.114 35.4318 177.014 29.4857 168.285C23.7926 159.998 21.9582 145.829 21.8317 144.564V144.5C21.8317 144.5 28.0308 153.356 34.6095 155.57C41.1881 157.784 50.2338 165.628 48.3994 180.114Z" fill="#328CBD"/>
<path d="M24.0457 149.371C25.1843 151.775 26.5127 154.052 28.0308 156.203C29.549 158.291 31.3201 160.125 33.3443 161.706C35.1155 163.098 36.95 164.363 38.7844 165.755L38.7211 165.692C38.4048 165.186 38.0253 164.743 37.6458 164.237C36.8867 163.288 36.1276 162.402 35.242 161.517C33.6606 159.745 31.9527 158.038 30.5611 156.14C29.7387 155.064 29.0429 153.989 28.4736 152.787C28.4736 152.724 28.5369 152.724 28.5369 152.787C30.6243 157.152 34.8625 159.998 37.8355 163.667C38.2783 164.173 38.6579 164.743 39.0374 165.312C39.3537 165.692 39.6067 166.134 39.7965 166.64C41.4411 167.969 42.896 169.487 44.2244 171.132C44.0979 170.246 43.9081 169.424 43.7184 168.601C43.4021 167.463 42.9593 166.324 42.3267 165.312C42.3267 165.249 42.39 165.186 42.39 165.249C43.0226 166.261 43.5286 167.399 43.9081 168.538C44.1612 169.424 44.3509 170.373 44.4142 171.321C45.0468 172.207 45.6161 173.093 46.1854 174.041C46.1221 173.788 46.0589 173.472 45.9956 173.219C45.7426 171.954 45.4896 170.626 45.11 169.36C44.4775 166.767 43.4654 164.3 42.0105 162.086C42.0105 162.086 42.0105 162.023 42.0737 162.023H42.137C43.6551 164.237 44.7937 166.64 45.6161 169.171C46.0589 170.436 46.3751 171.764 46.6282 173.029C46.7547 173.662 46.8812 174.294 47.0077 174.927C47.071 175.243 47.1342 175.623 47.1975 175.939C48.4626 178.786 49.4747 181.695 50.1705 184.732C51.4356 190.108 52.3845 195.612 52.9538 201.115C53.6496 206.871 53.9026 212.691 53.8394 218.511C53.8394 219.206 53.7761 219.965 53.7129 220.725C53.7129 220.914 53.3966 220.914 53.3966 220.725C53.2701 217.878 53.2068 214.968 53.0171 212.122C52.8273 209.275 52.5743 206.365 52.258 203.519C51.6887 197.889 50.7398 192.259 49.538 186.756C48.4626 182.012 47.1342 177.267 44.5407 173.093C43.2756 171.005 41.6942 169.171 39.8597 167.526C38.0253 165.881 36.0644 164.49 34.1667 162.972C32.2057 161.517 30.4345 159.809 28.9164 157.911C27.335 155.824 25.8801 153.61 24.7415 151.206C24.4252 150.637 24.1089 150.004 23.7926 149.435C23.9191 149.371 24.0457 149.308 24.0457 149.371Z" fill="#263238"/>
<path d="M26.2596 151.269C27.082 153.04 28.0941 154.685 29.1694 156.329C29.1694 156.393 29.1062 156.393 29.1062 156.393C27.9675 154.811 27.0187 153.103 26.1964 151.332C26.1331 151.269 26.2596 151.206 26.2596 151.269Z" fill="#263238"/>
<path d="M95.9681 174.358C95.9681 174.358 96.1579 192.766 85.1513 198.142C74.1447 203.519 68.1986 199.028 60.7343 200.799C61.0506 200.356 66.3641 192.702 74.9038 190.552C83.6331 188.401 93.3113 182.075 95.9681 174.358Z" fill="#328CBD"/>
<path opacity="0.1" d="M95.9681 174.358C95.9681 174.358 96.1579 192.766 85.1513 198.142C74.1447 203.519 68.1986 199.028 60.7343 200.799C64.7195 198.901 68.8944 197.699 73.2591 197.13C80.2173 196.245 93.5011 191.753 95.9681 174.358Z" fill="black"/>
<path d="M60.0385 201.179C61.3669 199.977 62.8218 198.965 64.4032 198.206C64.6562 198.079 64.9092 198.016 65.099 197.889C65.2255 197.763 65.352 197.573 65.4785 197.446C65.7948 197.067 66.1744 196.751 66.4907 196.434C67.1865 195.865 67.9455 195.296 68.7046 194.853C70.5391 193.778 72.5633 193.018 74.3977 192.006H74.4609V192.07C73.5121 192.576 72.6265 193.082 71.7409 193.588C70.8553 194.094 69.9698 194.6 69.1474 195.106C68.3883 195.612 67.6293 196.118 66.9967 196.751C66.8069 196.94 66.6172 197.13 66.4274 197.32C67.6293 196.877 68.8944 196.561 70.1595 196.308C72.1837 195.928 74.2079 195.612 76.2321 195.169C77.2442 194.979 78.1931 194.726 79.1419 194.41C80.0275 193.651 80.9764 192.955 81.8619 192.133C82.9373 191.184 83.8861 190.109 84.7085 188.97C84.7717 188.907 84.835 188.97 84.7717 189.033C83.4433 190.868 81.9252 192.512 80.2805 194.031C80.7866 193.841 81.2294 193.651 81.6722 193.461C85.4676 191.753 88.6936 189.033 91.0974 185.618C91.1606 185.554 91.2239 185.617 91.1606 185.681C89.1364 188.591 86.6062 191.121 83.5699 192.955C82.0517 193.904 80.4703 194.663 78.7624 195.232C76.8014 195.865 74.8405 196.308 72.8163 196.624C70.8553 196.94 68.8944 197.383 66.9967 198.016C65.2255 198.585 63.5809 199.471 62.126 200.609C59.2794 202.823 57.0655 205.607 55.4841 208.833C53.3966 213.007 52.3845 217.688 51.8152 222.306C51.8152 222.496 51.4989 222.496 51.4989 222.306C51.9417 214.589 54.0292 206.555 60.0385 201.179Z" fill="#263238"/>
<path d="M72.8163 195.106C73.3856 194.22 74.1447 193.524 75.0935 193.081C76.1689 192.512 77.0545 191.753 77.8135 190.868C77.8768 190.804 77.9401 190.868 77.8768 190.931C77.2442 191.753 76.4219 192.512 75.4731 193.081C74.461 193.588 73.5754 194.347 72.8795 195.232C72.8163 195.232 72.753 195.169 72.8163 195.106Z" fill="#263238"/>
<path d="M66.9334 214.779L66.4274 224.9L64.9092 255.895H41.7574L40.2393 224.9L39.7332 214.779H66.9334Z" fill="#37474F"/>
<path d="M66.9334 214.779L66.4274 224.9H40.2393L39.7332 214.779H66.9334Z" fill="#263238"/>
<path d="M68.5149 210.541H38.0886V220.219H68.5149V210.541Z" fill="#37474F"/>
</svg>
